<?xml version="1.0" standalone="no"?><!DOCTYPE svg PUBLIC "-//W3C//DTD SVG 1.1//EN" "http://www.w3.org/Graphics/SVG/1.1/DTD/svg11.dtd"><svg t="1731224934276" class="icon" viewBox="0 0 1024 1024" version="1.1" xmlns="http://www.w3.org/2000/svg" p-id="1499" xmlns:xlink="http://www.w3.org/1999/xlink" width="200" height="200"><path d="M683.04 571.136c67.296 0 164.704-13.92 164.704-93.952l0.032-2.304a76.8 76.8 0 0 0-1.824-16.608l0.096 0.512-40.096-174.08c-9.216-38.304-17.312-55.68-84.576-89.312-52.192-26.656-165.888-70.752-199.52-70.752-31.264 0-40.416 40.352-77.728 40.352-35.936 0-62.592-30.112-96.224-30.112-32.288 0-53.344 21.984-69.536 67.232 0 0-45.216 127.584-51.072 146.08a33.984 33.984 0 0 0-1.184 10.528v-0.064c0 49.568 195.296 212.224 456.96 212.224z m174.976-61.44c9.312 44.032 9.312 48.64 9.312 54.496 0 75.296-84.64 117.12-195.968 117.12-251.52 0.16-471.904-147.232-471.904-244.64v-0.192c0-14.208 2.976-27.712 8.352-39.936l-0.256 0.64c-90.4 4.512-207.584 20.704-207.584 124.064 0 169.344 401.28 378.08 718.976 378.08 243.616 0 305.024-110.176 305.024-197.12 0-68.48-59.168-146.144-165.856-192.512z" fill="#EE0000" p-id="1500"></path></svg>