<?xml version="1.0" standalone="no"?><!DOCTYPE svg PUBLIC "-//W3C//DTD SVG 1.1//EN" "http://www.w3.org/Graphics/SVG/1.1/DTD/svg11.dtd"><svg t="1731308744663" class="icon" viewBox="0 0 1353 1024" version="1.1" xmlns="http://www.w3.org/2000/svg" p-id="4293" xmlns:xlink="http://www.w3.org/1999/xlink" width="264.2578125" height="200"><path d="M902.899913 590.188442c88.958652 0 217.70416-18.399769 217.70416-124.187864 0.042298-0.888265 0.042298-1.945723 0.042298-3.040191a101.49746 101.49746 0 0 0-2.411004-21.952828l0.132182 0.676773-53.00508-230.102854c-12.181916-50.6258-22.88339-73.599075-111.794457-118.054608C884.584741 58.287083 734.298814 0 689.843281 0c-41.325457 0-53.422777 53.33818-102.742616 53.33818-47.501012 0-82.735512-39.802718-127.191045-39.802718-42.679004 0-70.511297 29.058945-91.914246 88.868768 0 0-59.767524 168.643397-67.508117 193.091825a44.916849 44.916849 0 0 0-1.607336 12.055021c0 0.634475 0 1.26895 0.042298 1.861126v-0.084597c0 65.520096 258.151927 280.52245 604.019993 280.522451z m231.287207-81.212772c12.308811 58.202487 12.308811 64.293445 12.308811 72.039324 0 99.533231-111.879053 154.811847-259.034904 154.811847-332.464786 0.211492-623.76802-194.614565-623.76802-323.370647v-0.25379a130.77054 130.77054 0 0 1 11.039861-52.788302l-0.338387 0.845967C154.896443 366.218844 0.001322 387.621794 0.001322 524.241398c0 223.842703 530.420918 499.754637 950.358627 499.754637 322.017101 0 403.187575-145.633112 403.187575-260.557644 0-90.518402-78.209591-193.176422-219.232187-254.466686z" fill="#EE0000" p-id="4294"></path></svg>